<svg xmlns="http://www.w3.org/2000/svg" xmlns:xlink="http://www.w3.org/1999/xlink" width="500" zoomAndPan="magnify" viewBox="0 0 375 374.999991" height="500" preserveAspectRatio="xMidYMid meet" version="1.0"><defs><g/></defs><g fill="#e7183f" fill-opacity="1"><g transform="translate(-1.774409, 306.633626)"><g><path d="M 110.578125 38.078125 C 89.929688 38.078125 74.535156 33.21875 64.390625 23.5 C 54.253906 13.78125 49.1875 -1.15625 49.1875 -21.3125 L 49.1875 -79.421875 C 49.1875 -87.679688 47.453125 -93.539062 43.984375 -97 C 40.523438 -100.46875 34.671875 -102.203125 26.421875 -102.203125 L 14.390625 -102.203125 L 14.390625 -141.359375 L 26.421875 -141.359375 C 34.671875 -141.359375 40.523438 -143.085938 43.984375 -146.546875 C 47.453125 -150.015625 49.1875 -155.875 49.1875 -164.125 L 49.1875 -222.25 C 49.1875 -242.40625 54.253906 -257.335938 64.390625 -267.046875 C 74.535156 -276.765625 89.929688 -281.625 110.578125 -281.625 L 134.25 -281.625 L 134.25 -243.1875 L 119.859375 -243.1875 C 112.085938 -243.1875 106.441406 -241.394531 102.921875 -237.8125 C 99.398438 -234.226562 97.640625 -228.1875 97.640625 -219.6875 L 97.640625 -170.6875 C 97.640625 -156.96875 95.179688 -146.523438 90.265625 -139.359375 C 85.347656 -132.191406 77.726562 -126.96875 67.40625 -123.6875 L 67.40625 -119.859375 C 77.726562 -116.585938 85.347656 -111.367188 90.265625 -104.203125 C 95.179688 -97.035156 97.640625 -86.585938 97.640625 -72.859375 L 97.640625 -23.859375 C 97.640625 -15.359375 99.398438 -9.316406 102.921875 -5.734375 C 106.441406 -2.148438 112.085938 -0.359375 119.859375 -0.359375 L 134.25 -0.359375 L 134.25 38.078125 Z M 110.578125 38.078125 "/></g></g><g transform="translate(143.592696, 306.633626)"><g/></g><g transform="translate(231.578047, 306.633626)"><g><path d="M 11.109375 38.078125 L 11.109375 -0.359375 L 25.5 -0.359375 C 33.15625 -0.359375 38.742188 -2.148438 42.265625 -5.734375 C 45.785156 -9.316406 47.546875 -15.359375 47.546875 -23.859375 L 47.546875 -72.859375 C 47.546875 -86.585938 50.035156 -97.003906 55.015625 -104.109375 C 59.992188 -111.210938 67.644531 -116.460938 77.96875 -119.859375 L 77.96875 -123.6875 C 67.644531 -127.09375 59.992188 -132.347656 55.015625 -139.453125 C 50.035156 -146.554688 47.546875 -156.96875 47.546875 -170.6875 L 47.546875 -219.6875 C 47.546875 -228.1875 45.785156 -234.226562 42.265625 -237.8125 C 38.742188 -241.394531 33.15625 -243.1875 25.5 -243.1875 L 11.109375 -243.1875 L 11.109375 -281.625 L 34.796875 -281.625 C 55.441406 -281.625 70.832031 -276.765625 80.96875 -267.046875 C 91.113281 -257.335938 96.1875 -242.40625 96.1875 -222.25 L 96.1875 -164.125 C 96.1875 -155.875 97.914062 -150.015625 101.375 -146.546875 C 104.832031 -143.085938 110.691406 -141.359375 118.953125 -141.359375 L 130.796875 -141.359375 L 130.796875 -102.203125 L 118.953125 -102.203125 C 110.691406 -102.203125 104.832031 -100.46875 101.375 -97 C 97.914062 -93.539062 96.1875 -87.679688 96.1875 -79.421875 L 96.1875 -21.3125 C 96.1875 -1.15625 91.113281 13.78125 80.96875 23.5 C 70.832031 33.21875 55.441406 38.078125 34.796875 38.078125 Z M 11.109375 38.078125 "/></g></g></g></svg>